<?xml version="1.0" encoding="utf-8"?>
<!-- Generator: Adobe Illustrator 18.0.0, SVG Export Plug-In . SVG Version: 6.00 Build 0)  -->
<!DOCTYPE svg PUBLIC "-//W3C//DTD SVG 1.1//EN" "http://www.w3.org/Graphics/SVG/1.1/DTD/svg11.dtd">
<svg version="1.1" id="Layer_1" xmlns="http://www.w3.org/2000/svg" xmlns:xlink="http://www.w3.org/1999/xlink" x="0px" y="0px"
	 viewBox="0 0 124.8 79.2" enable-background="new 0 0 124.8 79.2" xml:space="preserve">
<g>
	<path fill="#FDFDFE" d="M2,39c0,20.5,24.2,37,54.1,37c13.3,0,25.5-3.3,35-8.8c8.5,1,18.3,2,23.2,2.7c-4.1-2-8.2-8.6-10.7-13
		c4.3-5.3,6.8-11.4,6.8-17.9c0-20.5-24.2-37-54.1-37C26.2,2,2,18.6,2,39z"/>
	<g>
		<g>
			<g>
				<g>
					<path fill="#FFFFFF" d="M4.4,38.7C4.4,39.1,4.8,39,4.9,39C4.8,38.4,4.3,38.7,4.4,38.7z"/>
					<polygon fill="#FFFFFF" points="4.7,31.6 4.8,31.8 4.7,30.7 					"/>
					<path fill="#FFFFFF" d="M7.5,25.5c-0.5,0.1-0.8,0.7-1,1.3c-0.2,0.7-0.4,1.4-0.8,1.9l-0.2,0.1l0.3,0.7
						C6.2,28.1,6.8,26.3,7.5,25.5z"/>
					<path fill="#FFFFFF" d="M10.8,23.5c-0.3,0,0.3-0.8-0.6,0.6c0.1,0,0.1-0.1,0.1-0.1C10.4,23.9,10.6,23.7,10.8,23.5z"/>
					<path fill="#FFFFFF" d="M10.4,24C10,24.5,10.8,23.8,10.4,24L10.4,24z"/>
					<path fill="#FFFFFF" d="M12.3,21.4c0,0-0.1,0.2-0.2,0.4c-0.1,0.2-0.2,0.4-0.2,0.4c0.2,0,0.8-0.6,0.7-0.3
						C13.1,21.2,12.8,21.2,12.3,21.4z"/>
					<path fill="#FFFFFF" d="M12.5,20.4l-0.3,0.4C12.3,20.8,12.4,20.8,12.5,20.4z"/>
					<path fill="#FFFFFF" d="M11.7,21.7c0,0,0.1-0.2,0.3-0.4c0.1-0.2,0.3-0.4,0.3-0.4c-0.2,0-0.4-0.1-0.3,0.4
						C11.9,21,11.9,21.3,11.7,21.7z"/>
					<path fill="#FFFFFF" d="M11.3,22.1c-0.4,0.3-1,0.8-0.6-0.1c-0.5,0.7-0.6,1.1-0.5,1.1C10.3,23.1,10.7,22.8,11.3,22.1z"/>
					<path fill="#FFFFFF" d="M7,24.8c0,0-0.1,0.1-0.3,0.3c-0.1,0.1-0.3,0.3-0.3,0.3L6.4,26C6.4,25.7,7.2,24.9,7,24.8z"/>
					<path fill="#FFFFFF" d="M16.7,17.8c0-0.2-0.5-0.1-0.7-0.2l-0.4,0.6C15.9,18,16.5,17.6,16.7,17.8z"/>
					<path fill="#FFFFFF" d="M16,17.5l0.6-0.8C15.9,17.3,15.8,17.5,16,17.5z"/>
					<path fill="#FFFFFF" d="M12,19.8c0,0-0.2,0.4-0.4,0.8c-0.2,0.4-0.4,0.8-0.4,0.8s0.2-0.5,0.5-0.9c0.3-0.5,0.5-0.9,0.5-0.9
						L12,19.8z"/>
					<path fill="#FFFFFF" d="M19.8,15.5l-0.3,0.6c0,0,0.1-0.3,0.3-0.5c0.1-0.3,0.3-0.5,0.3-0.5L19.8,15.5z"/>
					<path fill="#FFFFFF" d="M22,14c-0.2,0.5,0.8,0.1,0.5,0.5c0.6-0.4,1-0.9,1.3-1.4C23.3,13.5,22.8,13.8,22,14z"/>
					<path fill="#FFFFFF" d="M24.4,12.4c-0.2,0.2-0.4,0.5-0.7,0.7C24,12.9,24.2,12.7,24.4,12.4z"/>
					<path fill="#FFFFFF" d="M18.1,15.7c0.1,0,0.4,0.1,0.9-0.1l-0.6-0.1C18.3,15.5,18.2,15.6,18.1,15.7z"/>
					<path fill="#FFFFFF" d="M18.4,15.5L18.4,15.5c0.4-0.2,0.6-0.4,0.8-0.5C19.1,15,18.8,15.2,18.4,15.5z"/>
					<path fill="#FFFFFF" d="M18,15.7C18,15.7,18.1,15.7,18,15.7C18,15.7,18,15.7,18,15.7z"/>
					<path fill="#FFFFFF" d="M14.3,18.1c0.3-0.6,1.1-1.6-0.1-1.1C14.1,17.6,14.7,17.2,14.3,18.1z"/>
					<path fill="#FFFFFF" d="M17.3,15.6l-0.9,0.6c0.1,0.1,0.3,0.1,0.2,0.4L17.3,15.6z"/>
					<polygon fill="#FFFFFF" points="17.6,15.2 17.3,15.6 17.6,15.4 					"/>
					<path fill="#FFFFFF" d="M22.6,13c0.3-0.4,0.8-0.7,1.3-1c-0.6,0.2-1.2,0.5-1.7,0.8C22.1,13,22,13.3,22.6,13z"/>
					<path fill="#FFFFFF" d="M20.5,14.1C20.5,14.1,20.5,14,20.5,14.1C20.5,14,20.4,14,20.5,14.1z"/>
					<polygon fill="#FFFFFF" points="29.1,9.5 29,9.5 29,9.5 					"/>
					<path fill="#FFFFFF" d="M22,12.8c-0.5,0.2-0.6,0.4-0.8,0.7c0.3-0.2,0.6-0.4,0.9-0.6C22.1,12.8,22.1,12.7,22,12.8z"/>
					<path fill="#FFFFFF" d="M25.8,11.5c-0.3,0-0.5,0.1-0.8,0.2C25.2,11.7,25.7,11.6,25.8,11.5z"/>
					<path fill="#FFFFFF" d="M20.8,14L20.8,14C20.9,14.1,20.9,14.1,20.8,14z"/>
					<path fill="#FFFFFF" d="M20.8,14c0.2-0.2,0.3-0.4,0.4-0.6c-0.2,0.2-0.4,0.4-0.6,0.5C20.6,14,20.7,14,20.8,14z"/>
					<path fill="#FFFFFF" d="M29.8,6.3c0.1,0.4-1,1.2-2.2,1.3c-0.9,0.7,0.3,1.6,1.4,1.9c0-0.2-0.1-0.3,0.9-0.9
						c-0.2,0-0.8,0.1-1.3,0.1c-0.5,0-0.8,0-0.4-0.3c1.3-0.8,1.2-0.3,1.9-0.4c-0.4-0.1,0-0.5,0.4-0.8c0.4-0.4,0.9-0.8,0.6-1.1
						c0,0-0.3,0.2-0.6,0.3c-0.3,0.2-0.6,0.4-0.6,0.4C29.8,6.6,30.2,6.2,29.8,6.3z"/>
					<path fill="#FFFFFF" d="M27.1,10.3l-0.4,0.2c0.5-0.2,0.9-0.2,1.7-0.1C28.9,9.9,29,9.7,29,9.5L27,10.4L27.1,10.3z"/>
					<path fill="#FFFFFF" d="M24.9,11.4c0.1-0.5,1-1.2,0.2-1.3c-1.2,0.6-0.7,0.7-1.3,1.3C25.6,10.2,23.3,11.9,24.9,11.4
						c-0.4,0.2-0.7,0.4-1,0.6c0.4-0.1,0.7-0.3,1.1-0.4c0,0,0,0-0.1,0l0,0l0,0c-0.1,0-0.1,0,0,0c0,0,0,0,0,0
						C24.8,11.5,24.8,11.5,24.9,11.4c0.6-0.2,0.1,0.1,0,0.2c0,0,0,0,0,0.1l0,0l1.8-1.2C26.3,10.6,25.7,10.9,24.9,11.4z"/>
					<path fill="#FFFFFF" d="M14.5,15.6c0.1,0,0.1,0,0.1,0C14.7,15.5,14.7,15.4,14.5,15.6z"/>
					<path fill="#FFFFFF" d="M15.4,15.2c-0.1,0.1-0.1,0.4-0.5,0.7c-0.4,0.2-0.1-0.2-0.2-0.3c-0.2,0.3-0.6,1,0.2,0.5l0.1-0.1
						c0.8-0.4,2-0.7,1.9-0.6C16.4,15.2,16.1,15.1,15.4,15.2z"/>
					<path fill="#FFFFFF" d="M20,12.9c0,0,0.3-0.3,0.7-0.6c0.4-0.3,0.7-0.6,0.7-0.6l-1,0.2l0.2,0.2C19.7,12.6,20.1,12.7,20,12.9z"/>
					<polygon fill="#FFFFFF" points="29.4,9.6 29.4,10.1 30.1,9.1 					"/>
					<polygon fill="#FFFFFF" points="31.6,8.7 31.6,9.1 32.1,8.7 					"/>
					<path fill="#FFFFFF" d="M117.3,72.7l-0.7,0C117,72.8,117.2,72.8,117.3,72.7z"/>
					<path fill="#FFFFFF" d="M121,72.9l-0.6-0.3C120.6,72.8,120.8,72.9,121,72.9z"/>
					<path fill="#FFFFFF" d="M87.5,11.6c0.5,0.7,1,1.6,1.1,1.2l0-0.5C88.1,12.1,87.8,11.9,87.5,11.6z"/>
					<path fill="#FFFFFF" d="M110.3,41.2c0-0.1,0.1-0.1,0.1-0.2c-0.1-0.2-0.3-0.4-0.4-0.6C110.1,40.7,110.2,41,110.3,41.2z"/>
					<path fill="#FFFFFF" d="M112,42c0,0-0.1,0.3-0.2,0.5c-0.1,0.3-0.2,0.5-0.2,0.5C111.7,42.8,111.9,42.5,112,42z"/>
					<path fill="#FFFFFF" d="M91.6,70.3c0,0,0,0.5,0,0.5C91.7,70.7,91.6,70.5,91.6,70.3z"/>
					<path fill="#FFFFFF" d="M55.1,4.4c0.7,0.2,1.2,0.2,1.7,0.3C55.9,4.4,55.3,4,55.1,4.4z"/>
					<path fill="#FFFFFF" d="M108,67.1c0.1,0.1,0.2,0.2,0.4,0.3C108.5,67.3,108.4,67.2,108,67.1z"/>
					<path fill="#FFFFFF" d="M58.7,4.7c-0.1,0-0.2-0.1-0.3-0.1c-0.5,0.1-1,0.1-1.6,0.1C57.3,4.8,58,5,58.7,4.7z"/>
					<path fill="#FFFFFF" d="M14.5,65.9c0-0.1-0.1-0.1-0.1-0.2C14.3,65.8,14.4,65.8,14.5,65.9z"/>
					<path fill="#FFFFFF" d="M4.7,45.2C4.8,45.3,4.9,45.7,5,46C4.9,45.8,4.9,45.6,4.7,45.2z"/>
					<path fill="#FFFFFF" d="M40.6,6.3C40.2,6.5,40.6,6.4,40.6,6.3L40.6,6.3z"/>
					<path fill="#FFFFFF" d="M37.9,5.2C38,5.1,38,5.1,38,5C38,5.1,38,5.1,37.9,5.2z"/>
					<path fill="#FFFFFF" d="M63.9,2.3C63.9,2.3,63.9,2.3,63.9,2.3C63.8,2.2,63.8,2.2,63.9,2.3z"/>
					<path fill="#FFFFFF" d="M39.9,6.3c0.2,0,0.4,0,0.6,0C40.4,6.3,40.2,6.3,39.9,6.3z"/>
					<path fill="#FFFFFF" d="M40,6.5c-0.2,0-0.3,0-0.4,0.1C39.5,6.6,39.6,6.6,40,6.5z"/>
					<path fill="#FFFFFF" d="M41.3,6.2c-0.3,0.1-0.5,0.1-0.8,0.1c0.1,0,0.1,0,0.1,0C40.8,6.3,41,6.2,41.3,6.2z"/>
					<path fill="#FFFFFF" d="M55.6,77.4c0,0-0.1,0-0.1,0C55,77.5,55.2,77.5,55.6,77.4z"/>
					<path fill="#FFFFFF" d="M101,15.5C101,15.5,101,15.5,101,15.5C101,15.5,101,15.5,101,15.5L101,15.5z"/>
					<path fill="#FFFFFF" d="M102.6,16.6c-1-0.2-1.3-0.6-1.6-1.1l-0.4,1.4c0,0,0.5-0.1,1-0.1C102.1,16.7,102.6,16.6,102.6,16.6z"/>
					<path fill="#FFFFFF" d="M102.4,71.2c0,0,0.3,0.1,0.6,0.3c0.4,0.1,1.1,0.3,1,0.3c-0.3,0-0.7,0.1-1,0.1c-0.2,0-0.4,0.1-0.5,0.1
						c-0.3,0-0.6,0.1-0.7,0.1c-0.3,0.1-0.3,0.1,0.2,0.5c0.1-0.3,0.4-0.5,0.9-0.5c0.8,0,2,0.1,3.1,0.2c2.3,0.2,4.5,0.4,4-0.3l1.7,0.5
						c-0.4-0.1-0.4,0-0.8,0c1.8,0.5,2.1,0.3,2.2,0c0.2-0.3,0.2-0.6,1.9-0.3c1.3,0.3,2.6,0.6,2.1,0.7l1.8-0.1
						c0.8,0.1,1.3,0.4,0.4,0.3c0,0,0.2,0,0.6,0c0.3,0,0.1,0,0.1,0c0,0-0.1-0.1-0.1-0.1c-0.1,0,0-0.1,0-0.1c0,0,0-0.1,0-0.1
						c0,0,0-0.1,0.1-0.1c0.1,0,0.1,0,0.1,0l0.1,0.1c-0.2-0.2-0.5-0.5-0.8-0.8c0-0.3-0.2-0.6-0.3-0.7c1.9,0.3,0.3,0.4,1.4,0.7
						c0-0.1,0.1-0.1,0.1-0.2c0,0,0-0.1,0-0.1l0.2-0.1l-4.5-2.5c-0.1-0.1,0.1-0.1,0.3,0c0.3,0.1,0.6,0.2,1.2,0.5
						c1.3,0.6,3.3,1.7,5.4,2.9c-0.1,0-0.3,0-0.4,0l-0.3,0c-0.2,0-0.4,0-0.7,0c1,0.3,1.8,0.5,2.5,0.7c0.3,0.1,0.7,0.2,0.9,0.2
						c0.3,0.1,0.7,0.1,1,0.2c-0.7-0.5-1.8-1.1-3-1.7c-1.1-0.6-2.4-1.2-3.9-2.1c-1.2-0.6-2.4-1.3-3.7-2.1l-0.3-0.2l-0.2-0.1
						c-0.1-0.1-0.2-0.2-0.4-0.2c-0.2-0.2-0.5-0.3-0.7-0.5c-0.3-0.2-0.5-0.4-0.8-0.6c-0.1-0.1-0.3-0.2-0.4-0.3
						c-0.1-0.1-0.1-0.2-0.2-0.3c0,0,0.1,0.1,0.4,0.3c0.4,0.2,0.9,0.5,1.3,0.8c1,0.6,2.1,1.2,2.1,1.2c-0.2-0.3-0.6-0.7-1.2-1.1
						c-0.3-0.2-0.6-0.4-1-0.7l-0.3-0.2l-0.1-0.1l-0.3-0.3c-0.4-0.4-0.8-0.9-1.2-1.4c-0.3-0.5-0.7-1-1.1-1.7c0.1,0.2,0.2,0.6,0.4,1
						c0.1,0.2,0.2,0.5,0.3,0.7c0.1,0.2,0.2,0.4,0.3,0.6c0.4,0.8,0.2,1.1-1,0.1c-0.2-0.3-0.5-0.6-0.8-1c-0.3-0.4-0.8-0.8-1.2-1.2
						c0.5-0.2-0.5-1.3-0.9-2l0.6-0.3c-0.7-0.8-0.9-0.5-1.5-0.9c-0.6-1-0.3-1.6,0.1-1.7c0-0.1-0.2-0.1-0.4,0.1
						c-0.2,0.1-0.3,0.4-0.6,0c0-0.2-0.1-0.3-0.1-0.5c0.1-0.2,0.1-0.3,0.2-0.5c0-0.1,0.1-0.3,0.1-0.4c0,0,0.1-0.3,0.2-0.4
						c0.1-0.2,0.1-0.3,0.2-0.5c0.8-0.9,0.2,0.4,0.6,0.1c0,0,0-0.3,0.1-0.6c0-0.3,0.1-0.6,0.1-0.6c0.1-0.2,0.2-0.1,0.3,0
						c0.3-0.9-0.5-0.4,0-1.7c-0.2-0.3,0.3-0.8,0.9-1.5c0.6-0.7,1.2-1.6,1.1-2.6c0.3-0.3,0.3,0.3,0.6,0.3c0.3-2.5,0.3-2.1,0.1-4.2
						c0,0,0.2-0.4,0.4-0.8c0.2-0.4,0.3-0.8,0.3-0.8c-0.7,1.1-0.9-0.5-1.3-1.8c-0.3,0.4-0.5,0.7-0.6,0.9c0,0,0-0.5-0.1-1
						c-0.1-0.5-0.1-1-0.1-1c0.1-0.2,0.3,0,0.6,0.3c0-0.1-0.1-0.3-0.1-0.4c0.3-0.7,0.6-0.3,1,0.2c-0.1,0.3-0.3,0.5-0.4,0.7
						c0.4,0.5,0.7,1.1,1.1,1c-0.1-0.1-0.1-0.4-0.1-0.7c0.1,0.1,0.2,0.2,0.3,0.2c0.1-0.1-0.1-0.3-0.2-0.7l0.7-0.5l-0.3-0.1
						c0,0,0.1-0.7,0.2-1.4c0.1-0.7,0.2-1.5,0.2-1.5c-0.9-2-2.1-3.6-3.3-6.4c0.7,0.6,0.9-0.1,1.5-0.3c-0.3,1,1,2.3,1.1,4.1
						c-0.1-0.9,0.2-0.7,0.4-0.5c0,0-0.1-0.2-0.2-0.5c-0.1-0.3-0.2-0.6-0.4-1c-0.3-0.7-0.7-1.4-0.7-1.4c0.5-0.1,0.2-0.7,0.1-1.5
						c-0.4,0.4-0.7,0-1.1-0.7c-0.4-0.7-0.7-1.6-1.2-2.1c0.3-0.2,0.8-0.1,1.2,1.3c0-0.9-0.5-1.3-1-1.6c-0.5-0.3-1-0.7-1.1-1.5
						c0.2,0.3,0.2,0.5,0.5,0.5c-0.7-0.6-1.5-2.5-1-2.2l0.2,0.3c-0.3-0.5-0.7-1.2-1.2-1.8c-0.5-0.6-1-1.3-1.5-1.9
						c-1.1-1.1-2.2-1.9-2.6-1.7c0.1-0.1,1-0.5,1.2-0.5c0,0-0.3-0.1-0.8-0.2c-0.5-0.1-1.1-0.2-1.7-0.3c-0.6-0.1-1.2-0.2-1.7-0.3
						c-0.5,0-0.8-0.1-0.8-0.1c0.8-0.3,0.8-2.6,2.6-1.6c-0.4-0.5-0.8-1-1.9-1.6c0.2,0.3,0,1.4-0.4,1.1c-0.6-1.5-0.5-1-1.5-2.6
						c0.4,0.5-0.8,1-1.5,0.5c0.2-0.1,0.6-1,0.9-0.9c0,0-0.6-0.1-1.2-0.2c-0.6-0.1-1.2-0.2-1.2-0.2c0.6,0.1,0.6-0.7,0.4-1.3
						c0,0.2-0.4-0.1-0.9-0.5c-0.5-0.3-1.1-0.7-1.4-0.8l0.7,0.7c-1.1-0.7-1.8-0.7-2.5-0.6c-0.7,0.1-1.5,0.1-2.6-0.4
						c0.4-0.1,1.3-1,0.2-1.6c-0.8,0.2-3.5,1.4-5.6,1.1l-0.3-0.5c0,0-0.4-0.1-0.8-0.1c-0.4,0-0.8-0.1-0.8-0.1
						c1.2-0.5,4.6-1.1,6.4-1.1c-0.8-0.6-0.1-0.5-1.4-1c-0.3-0.5,0.9-0.1,1.3,0c0,0-0.8-0.4-1.5-0.8C84.6,4.4,83.8,4,83.8,4
						c-0.1,0.7-2.6-0.3-2.7,0.3c0,0,0.9,0.1,1.8,0.3c0.9,0.2,1.8,0.3,1.8,0.3c-0.1,0.7-2.6,1-4.8,0.1c-0.5-0.4,0.8-1,0.8-1.2
						c-0.4,0.1-2.3-0.3-2.4-0.5l1.1,0c-1.2-0.6-2.3,0.2-3.6-0.8c-0.5-0.2-1.4-1.2-1.6-0.9c0.7,0.9,0.3,3.3-0.4,3.7
						c-0.2-0.1-2.5-1.3-3-1.8c-0.7-0.8,1.6-1.2,0.9-1.8c-0.1,0.2-0.6,0.3-0.8,0.3c-0.5-0.3,0.3-0.5-0.9-0.7C69.7,2.1,67.6,1,69.4,2
						c-1.2,0-1.2-0.4-2.6-0.5c0.4,0.5-1.4,1.3-2.6,1.4c0.1-0.2-0.2-0.4-0.3-0.5c-2.4-0.3-3.7-0.7-5.9-0.7c-0.2-0.2-1.3-0.4-0.8-0.7
						c-0.3,0.1-0.6,0.3-1.3,0.4c-1.4-0.6,1.6-0.1,0.5-0.8c-0.1,0.4-1.8,0.6-2.8,0.8c0.3,0.6,2.3,0.1,3.3-0.2c0,0.8-1.7,1.7-4,2.2
						c-1.8,0.3-0.8-0.5-1.1-0.4c-3.5,0.1-2.8,1.7-5.7,1.4C44.7,4,45.7,3.3,45.4,3c1.5-0.4,2.4,0,3.4-0.1c0,0-0.3,0-0.6-0.1
						c-0.3,0-0.6-0.1-0.6-0.1c0.5-0.2,1.5-0.5,2-0.3c-1-0.5-5.9,0.5-8.6,0.7c-0.4,0.3-1.2,0.6-0.8,0.7l0.8-0.2
						c0.9,0.3-1.5,0.9-0.4,0.9c-1,0.5-2.2,1.3-3.8,1.4l-0.4-0.5c0.1,0.2,1.1,0.1,1.5-0.2C37.3,5.6,35.3,5,34.8,6c0,0,0.3,0,0.6,0
						c0.3,0,0.6,0.1,0.6,0.1c-1,0.6-2.1,1.6-3.5,1.9c0.8,0.4,0.3-0.2,1.4,0.2c-1.1-0.6,3.4-1,1.8-1.5C36.9,7.3,37.5,6.6,39,7
						c-0.1-0.2-0.5-0.3,0.6-0.4c0-0.1,0.1-0.2,0.2-0.2c0,0,0,0,0.1,0c0,0,0,0-0.1,0c0,0,0,0,0,0c-0.3,0-0.5-0.1-0.6-0.2
						c0.5-0.6,2.3-1,2.9-1.3c0.7,0-0.2,0.3,0.2,0.4L43,4.7c0.2,0.4,1.9,0.4,0.4,1l1.4-0.2c0.9,0.1,2.1,0.1,2.8-0.2
						c0.7,0,1.7-0.7,1.1-0.3c0,0,0.6-0.1,1.1-0.2C50.5,4.6,51,4.5,51,4.5l0,0.1c2.3-0.1,4.7-1,7.3-0.1c0.8-0.1,1.6-0.2,2.8,0L61.4,5
						c1,0,2.9,0.6,3.3,0.3c0.9,1.1,4.6,0.8,6.3,1.4l0.2-0.5c1.1,0.3,2.3,0.4,3.8,0.6l0-0.5c1.3,0,3.1,1.2,5,1.8
						c-0.2,0.1-0.6-0.1-1-0.3c1.9,1.7,5,1.1,6.7,2.7c0.6,0.1,0.9,0.3,1.2,0.6c0,0-0.1,0-0.1,0c0,0,0.1,0.1,0.2,0.1
						c0.2,0.2,0.4,0.4,0.6,0.5c-0.1-0.2-0.3-0.4-0.5-0.5c0.4,0.2,1,0.4,1.6,0.6l0,0.5c0,0,0.1,0,0.1,0.1c0.4,0.4,0.5,0,0.4-0.4
						c0.3,0.1,0.6,0.1,0.9,0.1c0,0.9,1.6,0.6,1.7,1.7c0.3-0.1,1,0.3,1.7,0.6c0.7,0.3,1.4,0.6,1.8,0.4c0,0.1,0.1,0.3-0.2,0.1
						c0.5,0.5,1,1,1.6,1.2l-0.2,0.7c0,0,0.4,0.1,0.8,0.2c0.4,0.1,0.8,0.2,0.8,0.2c0.5,0.9,0.6,1.3-0.4,1c1.1,0.4,1.4,0.7,1.8,1
						c0.3,0.2,0.6,0.4,1.5,0.9l-0.4,0.2c0.5,0.5,1.6,0.9,1.6,1.5c0.2,0.8,1.3,2.3,2.4,4.1c1.1,1.8,2.1,4,2.3,5.9
						c0.4-0.5,0.5-0.1,0.5,0.5c0,0.6,0,1.2,0.4,1.2c-0.2,0.3-0.2,0.8-0.6,0.3c0.4,0.9,0.3,1.6,0.4,2.2c0,0.6,0.1,1.2,0.5,1.8
						c-0.3,0.2-0.4-0.4-0.6-0.2c0.1,0.1,0.3,0.6,0.1,0.8c-0.2,0.2-0.2-0.3-0.4-0.5c0.1,1.8,0.9,2,1.7,2.2c-0.4,1-0.4,1.5,0,2.2
						c-0.3,0.3-0.6,0.8-0.6-0.4c-0.1,0.3-0.3,1.4-0.5,2.3c-0.2,0.9-0.4,1.8-0.1,1.9c-0.2,0.2-0.3,0.9-0.3,1.1
						c-0.6,1.4-0.7,1.6-1.2,3l0.3-0.3c0.4,0.9-0.4,1.2-0.9,2.4l-0.1-0.1c-1,1.1-1.1,1.4-1.2,1.7c-0.1,0.1-0.1,0.3-0.3,0.5
						c-0.1,0.2-0.5,0.6-1.3,1.3l0.6,0c0.4,0.3-0.1,0.8-1,1.5c0.1,0.8,0.5,2.2,1.3,3c0,0-0.2-0.8-0.1-0.8c0.5,0.4,0.5,1.1,0.5,1.9
						c0,0.8,0,1.6,0.2,2c0,0.2-0.3-0.2-0.5-0.4c0.4,1.2,0.6,1.2,0.8,1.1c0.1-0.1,0.2-0.2,0.4-0.2c0.1,0,0.2,0.1,0.3,0.1
						c0.1,0,0.2,0.1,0.3,0.2c-0.1,0.2-0.3,0.2-0.5,0.3c-0.2,0.1-0.2,0.2-0.2,0.4c-0.1,0.1,0.3,0.2,0.9,0.5c0.5,0.3,1.3,0.9,0.9,0.9
						c0.4,0.1,0.7,0.1,1.3,0.5c0,0,0,0,0,0c0.4,0.3,0.3,0.4,0.2,0.5c0,0,0,0.1,0.2,0.2l0.2,0.1c0,0,0,0,0,0.1c0,0.1,0.2,0.1,0.3,0.3
						c-0.3-0.1-0.5-0.2-0.6-0.3c0,0.2-0.9,0.3-0.7,0.7c-1.5-1-1.8-0.8-2.6-0.7c-0.7,0.1-1.7,0.3-1.6-0.5l-3-0.3l0.1-0.1
						c-1.9-0.3-2.6,0-3.4,0.3c-0.4-0.2-0.1-0.3,0-0.3c-1.4-0.3-2.2-0.5-2.9-0.5c-0.4,0-0.7,0-1.1,0.1c-0.2,0-0.4,0.1-0.7,0.1
						c-0.1,0-0.3,0-0.5,0.1c-0.2,0-0.4,0-0.6,0.1c0,0-0.1-0.1-0.2-0.3c-0.1-0.1-0.2-0.3-0.2-0.3c-0.1,0-0.3,0-0.5,0
						c-0.2,0.1-0.4,0.2-0.7,0.4c-0.3,0.1-0.7,0.3-1,0.4c-0.3,0.1-0.5,0.2-0.8,0.3c-1.2,0.4-2.6,1-3.7,1.8c0-0.1,0-0.2,0.2-0.3
						c-1.3,0.9-3.1,1.2-4.6,1.6c-1.5,0.3-2.8,0.7-3.1,1.7c0,0-0.5,0.2-0.9,0.5c-0.5,0.2-0.9,0.5-0.9,0.5c2.6-0.6-0.2,0.9,0.9,0.9
						c-1,0.4-2.7,0.1-1.5-0.3l0.2,0c0.2-1-3.3,0.4-3.3-0.2c-5,1.1-10.1,1-14.8,1l0.6,0.7c0,0-0.4,0-0.8,0c-0.4,0-0.8,0-0.8,0
						c-0.4-0.2-0.6-0.6,0.6-0.5c-0.6-0.4-2,0.3-2,0.5c-2.3-0.3,0.9-0.8,0.2-0.9l-1,0l0.2,0.1c-0.8,0.3-0.9,0.6-2.3,0.5
						c-0.9-0.2-0.4-0.5-0.8-0.5c0-0.1-0.1-0.1-0.5-0.1c0,0-0.5-0.1-1-0.1c-0.5-0.1-1-0.1-1-0.1s0.2,0.2,0.4,0.3
						c0.2,0.2,0.4,0.3,0.4,0.3c-1,0.2-2-0.3-1.1,0.5c-0.7-0.6-2.6-0.9-4.5-1.2c-0.9-0.2-1.9-0.3-2.6-0.5c-0.7-0.2-1.3-0.3-1.5-0.4
						c-1.4,0.1-2.6-0.2-4.2-0.7c0.3,0.2,0.4,0.9-0.9,0.4c0.4-0.6-0.1-0.9-0.9-1.2c-0.8-0.4-1.7-0.8-2.1-1.4c0.7,1-3.7-1.3-2.6,0.1
						c-1-0.6,0.1-0.5-0.5-1.1c-2.7-0.6-5.3-2.9-8.1-4.6c-0.1,0.1,0.2,0.7-0.6,0.5c0,0-0.3-0.4-0.5-0.9c-0.2-0.4-0.5-0.9-0.5-0.9
						c-0.6-0.3-1.1,0.5-1.7-0.8c0,0.2,0.1,0.6-0.3,0.3c-2.3-2.4-4.8-4.5-6.9-7.2c-1.1-1.3-1.9-2.7-2.7-4.2c-0.7-1.5-1.2-3.1-1.2-4.7
						c0,0.9-0.3,0.4-0.5-0.2c0.1,0.4-0.4,0.1-0.6,0.3c0,0,0-0.2,0-0.4c0-0.3,0-0.6,0-1c0-0.3,0-0.7,0-1c0-0.3,0-0.4,0-0.4
						c-0.8-0.4-0.5-2.8-1.1-3.1c0,0,0,0.2,0.1,0.4c0.1,0.2,0.1,0.4,0.1,0.4c-0.4-0.5-0.8-0.1-1.2,0.5c-0.4,0.6-0.8,1.4-1.2,1.3
						c0.6,0.6,0.4,1.6,0.4,2.7c0,1.1,0.2,2.3,1.1,3.2c0,0.6-0.5-0.3-0.6,0c0.6,0.4,0.9,1,1.3,2.3l-0.2-0.1c0.4,0.8,0.8,1.6,1.1,2.2
						c0.3,0.7,0.7,1.3,1,1.9c0.3,0.6,0.7,1.2,1.1,1.9c0.4,0.7,0.9,1.4,1.6,2.3L8.2,59c0.5,0.7,0.6,0.9,0.8,1.3
						c0.6,0.1,0.2-0.3-0.2-0.8c-0.4-0.5-0.8-1-0.2-0.9c0,0.4,0.3,0.9,0.7,1.4c0.4,0.5,0.9,1.1,1.5,1.6c1.1,1.1,2.2,2,2.1,2.8
						c1.1,0.9,0-0.7,1.1,0.2L14,65l0.5-0.1c0.7,0.6,0.8,1.2,0.7,1.4c-0.2-0.2-0.6-0.3-0.8-0.4c0.4,0.5,1.1,1,1.7,1.3
						c0.6,0.4,1.2,0.6,1.4,0.8l-1-0.9c3.2,1.9,7.1,4.4,10.7,5.2L27.1,72c2.7,0.6,1.9,1.1,4.8,1.9l-0.1,0c0.6,0,1.4,0.1,2.2,0.4
						c-0.8,0,1.2,0.9,0.2,0.9c3,0.4,1.5,0.1,3.6-0.3l0.3,0.5c0.7-0.2,0.8-0.3,2.3-0.1c-1.3,0.1,0.8,0.7-0.6,0.9
						c1.5,0.7,2.7,0.7,3.6,0.7c1,0,1.7,0,2.3,0.7c0.8-0.4,0.1-0.6-0.6-0.8c-0.7-0.1-1.6-0.2-1.2-0.3c-0.6-0.4,1.3-0.6,2.2-0.4
						c1,0.1,1.5,1.5,4,1.7c-0.2,0-0.3,0-0.5,0c0.9,0.4,1.9-0.2,3,0.3c0.7-0.6,1.5,0.1,1.7-0.7c0,0-0.6,0-1.2,0.1c-0.6,0-1.2,0-1.2,0
						c1.3-0.1,2.5-1,4.7-0.6c-0.2,0.2-0.8,0.4-1.2,0.5c0.6,0.3,1.2-0.2,1.9,0.1c-0.2,0.8-2.8,0.2-4.2,0.7c0.7,0.3,2.7-0.5,2,0.3
						c1-1.1,2.5,0.1,4.2-0.8l-0.1,0.5c0.3-0.1,0.8-0.3,1.3-0.3l-0.9,0.7c1.4-0.6,2.7,0.3,4-0.1c-2.8,0.2-0.7-0.5-1.9-0.8
						c1.7-0.4,2.2-0.2,2.8,0.1c0.6,0.3,1.2,0.7,3.1,0.3c-0.5,0.1-2,0-1.2-0.3c0.7,0,1.7,0,2.2,0.2c2.5-0.5-0.5-0.4,0.6-0.9
						c1,0.4,1.2-0.4,2.2-0.8l0.1,0.5c2.9-0.3,0.5-1.1,3.2-1.3L74,76.3l1.3-0.5l-0.1,0.6c1.4-0.8,1.8-0.8,3.3-1
						c-0.4-0.2-0.1-0.9,1.2-1.3c0.9,0-0.3,0.6,1.4-0.1c-0.3,0.4-0.6,0.9-1.5,0.7c0,0.2-0.3,0.4-0.3,0.6c1,0,2.3-0.7,2.9-0.9
						c-0.2,0.1-0.5,0.1-0.7,0.1c0,0,0.6-0.4,1.1-0.8c0.6-0.4,1.1-0.8,1.1-0.8c0.5,0,0.2,0.3-0.1,0.5c0.5-0.2,0.8-0.6,1.5-0.9
						c0,0.4,0.2,0.8-0.8,1.4c0,0,0.6-0.3,1.1-0.7c0.5-0.3,1.1-0.7,1.1-0.7c0.2,0.1,1.4-0.1,1.1,0.2c0.7-0.2,1.4-0.7,2.2-1.3
						c0.4-0.3,0.8-0.6,1.2-0.9l0.3-0.2l0.2-0.1c0.1,0,0.1-0.1,0.2,0c0-0.1,0-0.2,0.1-0.3c0.1,0,0.1,0,0.2,0.1l0.1,0
						c0.1,0,0.2,0,0.3,0.1c0.4,0.1,0.8,0.2,1.2,0.3c0.8,0.2,1.7,0.2,2.7,0.1l1,0.8c1.6,0-1.4-1.1,1.2-1c1.9,0,0.6,0.7,1.2,0.9
						c0.5-0.1,1.1-0.3,1.9-0.4c0.4,0,0.8,0,1.2,0L103,71c0.1,0,0.3,0.1,0.4,0.1c0.3,0.1,0.7,0.2,1,0.3c-0.5,0-0.9,0-1.3-0.1
						C102.9,71.2,102.7,71.2,102.4,71.2z M111.4,64.7c0.3,0.2,0.8,0.6,1.2,1c0.8,0.4,1.5,0.9,1.5,1c-1.1-0.4-1.6-0.7-2-1
						C111.8,65.4,111.7,65.1,111.4,64.7z M111.3,38.4c0.2,0.3,0.1,0.7-0.1,1.2C111.2,39.2,111.2,38.8,111.3,38.4z M45.9,5
						C46,5,46,5,45.9,5C46.8,5.1,46.5,5,45.9,5z M44.2,5.1c-0.2,0.1-0.1,0.2-0.1,0.2c0.1-0.1,0.5-0.2,0.9-0.2
						C45,4.9,44.7,4.9,44.2,5.1z M50.3,73.9l0.3,0.2C49.8,74.2,50,74.1,50.3,73.9z"/>
					<path fill="#FFFFFF" d="M111.8,41.9c-0.1,0.1-0.2,0.1-0.3,0.1C111.6,42.2,111.7,42.2,111.8,41.9z"/>
					<path fill="#FFFFFF" d="M91.6,70.2C91.6,70.2,91.6,70.2,91.6,70.2C91.5,70.3,91.6,70.3,91.6,70.2L91.6,70.2z"/>
					<path fill="#FFFFFF" d="M71.1,1.4c0.3,0.1,0.5,0.3,0.6,0.4C71.8,1.7,71.7,1.6,71.1,1.4z"/>
					<path fill="#FFFFFF" d="M35.7,7.8l1-0.4c-0.5,0.2-0.7,0.1-1,0.1C35.8,7.6,36.1,7.7,35.7,7.8z"/>
					<path fill="#FFFFFF" d="M25.8,8.3c-0.1,0.1-0.3,0.2-0.4,0.3l0.1,0.2C26.2,8.4,26.5,8.1,25.8,8.3z"/>
					<path fill="#FFFFFF" d="M34.3,6.5c-0.2-0.4-0.8,0-1.5,0.3c0,0,0.1,0,0.1,0C32.9,7.4,33.6,7,34.3,6.5z"/>
					<path fill="#FFFFFF" d="M32.6,6.9C32.4,7,32.2,7.1,32,7.1C32,7.4,32.3,7.1,32.6,6.9z"/>
					<path fill="#FFFFFF" d="M42.2,5.7c-0.4,0-0.1,0.6-0.4,0.4C41.5,6.7,44.1,5,42.2,5.7z"/>
					<polygon fill="#FFFFFF" points="33.3,5.5 33.7,5.8 34,5.3 					"/>
					<path fill="#FFFFFF" d="M39.4,4.2l-1.2,0.1c0,0.1-0.1,0.2-0.3,0.2C38.6,4.4,39.4,4.3,39.4,4.2z"/>
					<path fill="#FFFFFF" d="M37.8,4.6c-0.4,0.1-0.8,0.2-0.9,0.3C37.1,4.9,37.5,4.7,37.8,4.6z"/>
					<polygon fill="#FFFFFF" points="34.9,4.8 35.3,4.8 36.2,4.6 					"/>
					<path fill="#FFFFFF" d="M52.6,2.6c0,0,0.3-0.1,0.7-0.1c0.3,0,0.7-0.1,0.7-0.1c0.1-0.2-0.2-0.3-0.7-0.2
						C52.9,2.3,52.4,2.4,52.6,2.6z"/>
					<path fill="#FFFFFF" d="M48.4,1.5c0.4,0.1,0.4,0.2,0.6,0.3l0-0.6L48.4,1.5z"/>
					<path fill="#FFFFFF" d="M52.4,1c0.1-0.2,2-0.6,0.2-0.5C52.5,0.8,51.1,1,52.4,1z"/>
					<polygon fill="#FFFFFF" points="72.9,3.5 72.5,3.5 72.3,4.5 					"/>
					<path fill="#FFFFFF" d="M91,7.6c-1.4-1-0.6,0.3-1.9-0.6c-0.5,0,1,0.8,0.5,0.8C90.7,8.1,91.1,8.4,91,7.6z"/>
					<path fill="#FFFFFF" d="M89.7,7.8c-0.2,0-0.3-0.1-0.5-0.1C89.5,7.8,89.6,7.8,89.7,7.8z"/>
					<path fill="#FFFFFF" d="M4.6,41.6c0,0,0-0.2,0.1-0.5c0-0.2,0.1-0.5,0.1-0.5S4.6,40.8,4.6,41c-0.1,0.2-0.1,0.3-0.1,0.3L4.6,41.6
						z"/>
					<path fill="#FFFFFF" d="M3.7,39.9l0.6-0.2L3.8,39C3.8,39.3,3.9,39.7,3.7,39.9z"/>
					<path fill="#FFFFFF" d="M109.7,60.5l-0.2,0c0,0.1-0.1,0.2,0.1,0.4c0.1,0.2,0.3,0.5,0.5,0.8c0,0-0.1-0.3-0.2-0.6
						c-0.1-0.2-0.1-0.3-0.2-0.4C109.8,60.5,109.7,60.5,109.7,60.5z"/>
					<polygon fill="#FFFFFF" points="116.3,73.3 116.8,73.3 114.9,72.5 					"/>
					<path fill="#FFFFFF" d="M98.7,72c0.5,0.1,1.1,0,1.5,0.1C99.2,72.1,98.7,71.3,98.7,72z"/>
				</g>
			</g>
		</g>
	</g>
</g>
</svg>
